# xmcd
#
# Track frame offsets: 
#        150
#        17995
#        38867
#        58676
#
# Disc length: 1019 seconds
#
# Revision: 11
# Processed by: cddbd v1.5.2PL0 Copyright (c) Steve Scherf et al.
# Submitted via: ExactAudioCopyFreeDBPlugin 1.0
#
DISCID=2f03f904
DTITLE=あいみょん - 今夜このまま
DYEAR=2018
DGENRE=Pop
TTITLE0=今夜このまま
TTITLE1=猫[2018.10.7 Live at 上野恩賜公園 野外ステージ]
TTITLE2=風のささやき[2018.10.7 Live at 上野恩賜公園 野外ステージ]
TTITLE3=今夜このまま[Instrumental]
EXTD=YEAR: 2004
EXTT0=
EXTT1=
EXTT2=
EXTT3=
PLAYORDER=
